<svg width="254" height="55" viewBox="0 0 254 55" fill="none" xmlns="http://www.w3.org/2000/svg">
<path d="M45.1172 5.80144C47.3516 5.80144 49.457 6.23112 51.4336 7.0905C53.4102 7.9069 55.1074 9.04558 56.5254 10.5065C57.9863 11.9245 59.125 13.6217 59.9414 15.5983C60.8008 17.5749 61.2305 19.6803 61.2305 21.9147V38.028H58.0078V21.9147C58.0078 20.153 57.6641 18.4987 56.9766 16.9518C56.2891 15.362 55.3652 13.987 54.2051 12.8268C53.0449 11.6667 51.6699 10.7428 50.0801 10.0553C48.5332 9.36784 46.8789 9.02409 45.1172 9.02409C43.3555 9.02409 41.6797 9.36784 40.0898 10.0553C38.543 10.7428 37.1895 11.6667 36.0293 12.8268C34.8691 13.987 33.9453 15.362 33.2578 16.9518C32.5703 18.4987 32.2266 20.153 32.2266 21.9147V38.028H29.0039V21.9147C29.0039 20.153 28.6602 18.4987 27.9727 16.9518C27.2852 15.362 26.3613 13.987 25.2012 12.8268C24.041 11.6667 22.666 10.7428 21.0762 10.0553C19.5293 9.36784 17.875 9.02409 16.1133 9.02409C14.3516 9.02409 12.6758 9.36784 11.0859 10.0553C9.53906 10.7428 8.18555 11.6667 7.02539 12.8268C5.86523 13.987 4.94141 15.362 4.25391 16.9518C3.56641 18.4987 3.22266 20.153 3.22266 21.9147V38.028H0V21.9147C0 19.6803 0.429687 17.5749 1.28906 15.5983C2.14844 13.6217 3.30859 11.9245 4.76953 10.5065C6.27344 9.04558 7.99219 7.9069 9.92578 7.0905C11.8594 6.23112 13.9219 5.80144 16.1133 5.80144C17.7031 5.80144 19.2285 6.03776 20.6895 6.51042C22.1934 6.94011 23.5684 7.56315 24.8145 8.37956C26.0605 9.19597 27.1777 10.1628 28.166 11.28C29.1543 12.3542 29.9707 13.5358 30.6152 14.8249C31.2598 13.5358 32.0762 12.3542 33.0645 11.28C34.0957 10.1628 35.2344 9.19597 36.4805 8.37956C37.7695 7.56315 39.1445 6.94011 40.6055 6.51042C42.0664 6.03776 43.5703 5.80144 45.1172 5.80144Z" fill="#C643D8"/>
<path d="M83.1445 34.8047C85.8945 34.8047 88.3223 34.0742 90.4277 32.6133C92.5332 31.1523 94.0801 29.1973 95.0684 26.748H98.6133C98.0547 28.3809 97.2598 29.8848 96.2285 31.2598C95.2402 32.6348 94.0586 33.8164 92.6836 34.8047C91.3516 35.793 89.8691 36.5879 88.2363 37.1894C86.6035 37.748 84.9062 38.0273 83.1445 38.0273C80.8672 38.0273 78.7402 37.6191 76.7637 36.8027C74.8301 35.9434 73.1328 34.8047 71.6719 33.3867C70.2539 31.9258 69.1152 30.2285 68.2559 28.2949C67.4395 26.3184 67.0312 24.1914 67.0312 21.9141C67.0312 19.6797 67.4395 17.5742 68.2559 15.5977C69.1152 13.6211 70.2539 11.9238 71.6719 10.5059C73.1328 9.04492 74.8301 7.90625 76.7637 7.08984C78.7402 6.23047 80.8672 5.80078 83.1445 5.80078C85.3789 5.80078 87.4844 6.23047 89.4609 7.08984C91.4375 7.90625 93.1348 9.04492 94.5527 10.5059C96.0137 11.9238 97.1523 13.6211 97.9687 15.5977C98.8281 17.5742 99.2578 19.6797 99.2578 21.9141V23.5254H70.2539C70.5117 25.1582 71.0059 26.6621 71.7363 28.0371C72.5098 29.4121 73.4766 30.5937 74.6367 31.582C75.7969 32.5703 77.0859 33.3652 78.5039 33.9668C79.9648 34.5254 81.5117 34.8047 83.1445 34.8047ZM83.1445 9.02344C81.5117 9.02344 79.9648 9.32422 78.5039 9.92578C77.0859 10.4844 75.7969 11.2578 74.6367 12.2461C73.4766 13.2344 72.5098 14.4375 71.7363 15.8555C71.0059 17.2305 70.5117 18.7129 70.2539 20.3027H96.0352C95.7773 18.7129 95.2617 17.2305 94.4883 15.8555C93.7578 14.4375 92.8125 13.2344 91.6523 12.2461C90.4922 11.2578 89.1816 10.4844 87.7207 9.92578C86.2598 9.32422 84.7344 9.02344 83.1445 9.02344Z" fill="#EE6054"/>
<path d="M137.93 38.0273C137.93 40.2188 137.5 42.2812 136.641 44.2148C135.824 46.1484 134.686 47.8457 133.225 49.3066C131.807 50.8105 130.109 51.9922 128.133 52.8516C126.156 53.7109 124.051 54.1406 121.816 54.1406C119.625 54.1406 117.562 53.7109 115.629 52.8516C113.695 51.9922 111.977 50.8105 110.473 49.3066C109.012 47.8457 107.852 46.1484 106.992 44.2148C106.133 42.2812 105.703 40.2188 105.703 38.0273H108.926C108.926 39.7891 109.27 41.4434 109.957 42.9902C110.645 44.5801 111.568 45.9551 112.729 47.1152C113.889 48.2754 115.242 49.1992 116.789 49.8867C118.379 50.5742 120.055 50.918 121.816 50.918C123.664 50.918 125.361 50.5742 126.908 49.8867C128.498 49.1992 129.873 48.2754 131.033 47.1152C132.193 45.9551 133.096 44.5801 133.74 42.9902C134.385 41.4434 134.707 39.7891 134.707 38.0273V31.582C133.246 33.5156 131.42 35.084 129.229 36.2871C127.037 37.4473 124.566 38.0273 121.816 38.0273C119.625 38.0273 117.562 37.6191 115.629 36.8027C113.695 35.9434 111.977 34.8047 110.473 33.3867C109.012 31.9258 107.852 30.2285 106.992 28.2949C106.133 26.3184 105.703 24.1914 105.703 21.9141C105.703 19.6797 106.133 17.5742 106.992 15.5977C107.852 13.6211 109.012 11.9238 110.473 10.5059C111.977 9.04492 113.695 7.90625 115.629 7.08984C117.562 6.23047 119.625 5.80078 121.816 5.80078C124.051 5.80078 126.156 6.23047 128.133 7.08984C130.109 7.90625 131.807 9.04492 133.225 10.5059C134.686 11.9238 135.824 13.6211 136.641 15.5977C137.5 17.5742 137.93 19.6797 137.93 21.9141V38.0273ZM121.816 34.8047C123.664 34.8047 125.361 34.4609 126.908 33.7734C128.498 33.0859 129.873 32.1621 131.033 31.002C132.193 29.8418 133.096 28.4883 133.74 26.9414C134.385 25.3516 134.707 23.6758 134.707 21.9141C134.707 20.1523 134.385 18.498 133.74 16.9512C133.096 15.3613 132.193 13.9863 131.033 12.8262C129.873 11.666 128.498 10.7422 126.908 10.0547C125.361 9.36719 123.664 9.02344 121.816 9.02344C120.055 9.02344 118.379 9.36719 116.789 10.0547C115.242 10.7422 113.889 11.666 112.729 12.8262C111.568 13.9863 110.645 15.3613 109.957 16.9512C109.27 18.498 108.926 20.1523 108.926 21.9141C108.926 23.6758 109.27 25.3516 109.957 26.9414C110.645 28.4883 111.568 29.8418 112.729 31.002C113.889 32.1621 115.242 33.0859 116.789 33.7734C118.379 34.4609 120.055 34.8047 121.816 34.8047Z" fill="#34C6C3"/>
<path d="M144.375 21.9141C144.375 19.6797 144.783 17.5742 145.6 15.5977C146.459 13.6211 147.598 11.9238 149.016 10.5059C150.477 9.04492 152.174 7.90625 154.107 7.08984C156.084 6.23047 158.211 5.80078 160.488 5.80078C163.066 5.80078 165.494 6.40235 167.771 7.60547C170.049 8.76563 171.918 10.3125 173.379 12.2461V0H176.602V21.9141C176.602 24.1914 176.172 26.3184 175.312 28.2949C174.496 30.2285 173.357 31.9258 171.896 33.3867C170.479 34.8047 168.781 35.9434 166.805 36.8027C164.828 37.6191 162.723 38.0273 160.488 38.0273C158.211 38.0273 156.084 37.6191 154.107 36.8027C152.174 35.9434 150.477 34.8047 149.016 33.3867C147.598 31.9258 146.459 30.2285 145.6 28.2949C144.783 26.3184 144.375 24.1914 144.375 21.9141ZM147.598 21.9141C147.598 23.6758 147.941 25.3516 148.629 26.9414C149.316 28.4883 150.24 29.8418 151.4 31.002C152.561 32.1621 153.914 33.0859 155.461 33.7734C157.051 34.4609 158.727 34.8047 160.488 34.8047C162.25 34.8047 163.904 34.4609 165.451 33.7734C167.041 33.0859 168.416 32.1621 169.576 31.002C170.736 29.8418 171.66 28.4883 172.348 26.9414C173.035 25.3516 173.379 23.6758 173.379 21.9141C173.379 20.1523 173.035 18.498 172.348 16.9512C171.66 15.3613 170.736 13.9863 169.576 12.8262C168.416 11.666 167.041 10.7422 165.451 10.0547C163.904 9.36719 162.25 9.02344 160.488 9.02344C158.727 9.02344 157.051 9.36719 155.461 10.0547C153.914 10.7422 152.561 11.666 151.4 12.8262C150.24 13.9863 149.316 15.3613 148.629 16.9512C147.941 18.498 147.598 20.1523 147.598 21.9141Z" fill="#22A4EE"/>
<path d="M199.16 5.80078C201.395 5.80078 203.5 6.23047 205.477 7.08984C207.453 7.90625 209.15 9.04492 210.568 10.5059C212.029 11.9238 213.168 13.6211 213.984 15.5977C214.844 17.5742 215.273 19.6797 215.273 21.9141V38.0273H212.051V31.582C210.59 33.5156 208.721 35.084 206.443 36.2871C204.166 37.4473 201.738 38.0273 199.16 38.0273C196.883 38.0273 194.756 37.6191 192.779 36.8027C190.846 35.9434 189.148 34.8047 187.687 33.3867C186.27 31.9258 185.131 30.2285 184.271 28.2949C183.455 26.3184 183.047 24.1914 183.047 21.9141C183.047 19.6797 183.455 17.5742 184.271 15.5977C185.131 13.6211 186.27 11.9238 187.687 10.5059C189.148 9.04492 190.846 7.90625 192.779 7.08984C194.756 6.23047 196.883 5.80078 199.16 5.80078ZM199.16 34.8047C200.922 34.8047 202.576 34.4609 204.123 33.7734C205.713 33.0859 207.088 32.1621 208.248 31.0019C209.408 29.8418 210.332 28.4883 211.02 26.9414C211.707 25.3516 212.051 23.6758 212.051 21.9141C212.051 20.1523 211.707 18.498 211.02 16.9512C210.332 15.3613 209.408 13.9863 208.248 12.8262C207.088 11.666 205.713 10.7422 204.123 10.0547C202.576 9.36719 200.922 9.02344 199.16 9.02344C197.398 9.02344 195.723 9.36719 194.133 10.0547C192.586 10.7422 191.232 11.666 190.072 12.8262C188.912 13.9863 187.988 15.3613 187.301 16.9512C186.613 18.498 186.27 20.1523 186.27 21.9141C186.27 23.6758 186.613 25.3516 187.301 26.9414C187.988 28.4883 188.912 29.8418 190.072 31.0019C191.232 32.1621 192.586 33.0859 194.133 33.7734C195.723 34.4609 197.398 34.8047 199.16 34.8047Z" fill="#78CF4D"/>
<path d="M253.945 21.9141C253.945 24.1914 253.516 26.3184 252.656 28.2949C251.797 30.2285 250.615 31.9258 249.111 33.3867C247.65 34.8047 245.953 35.9434 244.02 36.8027C242.086 37.6191 240.023 38.0273 237.832 38.0273C235.082 38.0273 232.611 37.4473 230.42 36.2871C228.229 35.084 226.402 33.5156 224.941 31.582V55H221.719V21.9141C221.719 19.6797 222.127 17.5742 222.943 15.5977C223.803 13.6211 224.941 11.9238 226.359 10.5059C227.82 9.04492 229.518 7.90625 231.451 7.08984C233.428 6.23047 235.555 5.80078 237.832 5.80078C240.023 5.80078 242.086 6.23047 244.02 7.08984C245.953 7.90625 247.65 9.04492 249.111 10.5059C250.615 11.9238 251.797 13.6211 252.656 15.5977C253.516 17.5742 253.945 19.6797 253.945 21.9141ZM250.723 21.9141C250.723 20.1523 250.379 18.498 249.691 16.9512C249.004 15.3613 248.08 13.9863 246.92 12.8262C245.76 11.666 244.385 10.7422 242.795 10.0547C241.248 9.36719 239.594 9.02344 237.832 9.02344C236.07 9.02344 234.395 9.36719 232.805 10.0547C231.258 10.7422 229.904 11.666 228.744 12.8262C227.584 13.9863 226.66 15.3613 225.973 16.9512C225.285 18.498 224.941 20.1523 224.941 21.9141C224.941 23.6758 225.285 25.3516 225.973 26.9414C226.66 28.4883 227.584 29.8418 228.744 31.002C229.904 32.1621 231.258 33.0859 232.805 33.7734C234.395 34.4609 236.07 34.8047 237.832 34.8047C239.594 34.8047 241.248 34.4609 242.795 33.7734C244.385 33.0859 245.76 32.1621 246.92 31.002C248.08 29.8418 249.004 28.4883 249.691 26.9414C250.379 25.3516 250.723 23.6758 250.723 21.9141Z" fill="#E8B922"/>
</svg>
