<svg width="164" height="50" viewBox="0 0 164 50" fill="none" xmlns="http://www.w3.org/2000/svg">
<path d="M12.9678 34.3964L13.6531 38.5873C12.3177 38.8684 11.1228 39.009 10.0685 39.009C8.34651 39.009 7.01107 38.7366 6.0622 38.1919C5.11334 37.6472 4.44562 36.9355 4.05904 36.0569C3.67247 35.1608 3.47918 33.2894 3.47918 30.4428V14.3384H0V10.6484H3.47918V3.71641L8.19715 0.869812V10.6484H12.9678V14.3384H8.19715V30.7064C8.19715 32.0594 8.27623 32.9292 8.43437 33.3158C8.61009 33.7024 8.88245 34.0099 9.25145 34.2383C9.63803 34.4667 10.1827 34.5809 10.8856 34.5809C11.4128 34.5809 12.1068 34.5194 12.9678 34.3964Z" fill="#0E0061"/>
<path d="M35.8052 29.6257L40.7076 30.2319C39.9345 33.0961 38.5024 35.3189 36.4114 36.9004C34.3204 38.4818 31.6495 39.2725 28.3987 39.2725C24.3046 39.2725 21.0538 38.0162 18.6465 35.5034C16.2568 32.9731 15.0619 29.4324 15.0619 24.8814C15.0619 20.1722 16.2743 16.5173 18.6992 13.9167C21.1241 11.3161 24.2694 10.0158 28.1352 10.0158C31.8779 10.0158 34.9354 11.2898 37.3075 13.8376C39.6797 16.3855 40.8658 19.9701 40.8658 24.5915C40.8658 24.8726 40.857 25.2943 40.8394 25.8566H19.9644C20.1401 28.9316 21.0099 31.2862 22.5738 32.9204C24.1376 34.5546 26.0881 35.3716 28.4251 35.3716C30.1647 35.3716 31.6495 34.9148 32.8795 34.0011C34.1095 33.0873 35.0847 31.6289 35.8052 29.6257ZM20.2279 21.9557H35.8579C35.647 19.6011 35.0496 17.8352 34.0656 16.6579C32.5544 14.8304 30.5952 13.9167 28.1879 13.9167C26.009 13.9167 24.1728 14.6459 22.6792 16.1044C21.2032 17.5628 20.3861 19.5133 20.2279 21.9557Z" fill="#0044AA"/>
<path d="M42.6302 38.64L52.8569 24.0907L43.3946 10.6484H49.325L53.6213 17.2114C54.4296 18.459 55.0797 19.5045 55.5717 20.3479C56.3449 19.1882 57.0565 18.1603 57.7067 17.2641L62.4247 10.6484H68.0915L58.4183 23.8271L68.8295 38.64H63.0045L57.2586 29.942L55.7299 27.5962L48.3762 38.64H42.6302Z" fill="#272FEA"/>
<path d="M71.5983 38.6399V0H76.3426V38.6399H71.5983Z" fill="#0E6AE8"/>
<path d="M100.765 35.1871C99.0083 36.6807 97.3126 37.735 95.6785 38.35C94.0619 38.965 92.3223 39.2725 90.4597 39.2725C87.3847 39.2725 85.0213 38.5257 83.3696 37.0322C81.7178 35.521 80.892 33.5969 80.892 31.2599C80.892 29.8893 81.1995 28.6417 81.8145 27.5171C82.4471 26.375 83.2641 25.4613 84.2657 24.776C85.2849 24.0907 86.427 23.5723 87.6922 23.2209C88.6235 22.9749 90.0292 22.7377 91.9094 22.5092C95.74 22.0524 98.5602 21.5076 100.37 20.8751C100.388 20.2249 100.396 19.812 100.396 19.6363C100.396 17.7034 99.9484 16.3416 99.0522 15.5509C97.8398 14.479 96.0387 13.9431 93.649 13.9431C91.4174 13.9431 89.7656 14.3384 88.6938 15.1292C87.6395 15.9023 86.8575 17.2817 86.348 19.2673L81.709 18.6347C82.1308 16.6491 82.8248 15.0501 83.7913 13.8376C84.7577 12.6076 86.1547 11.6675 87.9821 11.0174C89.8096 10.3497 91.9269 10.0158 94.3342 10.0158C96.724 10.0158 98.6656 10.297 100.159 10.8593C101.653 11.4215 102.751 12.1332 103.454 12.9942C104.157 13.8376 104.649 14.9095 104.93 16.2098C105.088 17.0181 105.167 18.4765 105.167 20.5851V26.9109C105.167 31.3214 105.264 34.1153 105.457 35.2926C105.668 36.4523 106.072 37.5681 106.67 38.64H101.714C101.222 37.656 100.906 36.505 100.765 35.1871ZM100.37 24.5915C98.6481 25.2943 96.065 25.8918 92.621 26.3838C90.6706 26.6649 89.2912 26.9812 88.4829 27.3326C87.6746 27.6841 87.0508 28.2024 86.6115 28.8877C86.1722 29.5554 85.9526 30.3022 85.9526 31.1281C85.9526 32.3933 86.427 33.4475 87.3759 34.291C88.3423 35.1344 89.7481 35.5561 91.5931 35.5561C93.4205 35.5561 95.0459 35.1608 96.4692 34.3701C97.8925 33.5618 98.938 32.4635 99.6057 31.0754C100.115 30.0035 100.37 28.4221 100.37 26.3311V24.5915Z" fill="#0B95ED"/>
<path d="M111.649 38.64V10.6484H115.919V14.6284C117.975 11.5533 120.944 10.0158 124.828 10.0158C126.514 10.0158 128.061 10.3233 129.466 10.9383C130.89 11.5358 131.953 12.3265 132.656 13.3105C133.359 14.2945 133.851 15.463 134.132 16.816C134.307 17.6946 134.395 19.2321 134.395 21.4286V38.64H129.651V21.6131C129.651 19.6802 129.466 18.2393 129.097 17.2905C128.728 16.324 128.069 15.5597 127.121 14.9974C126.189 14.4175 125.091 14.1276 123.826 14.1276C121.805 14.1276 120.057 14.7689 118.581 16.0517C117.122 17.3344 116.393 19.7681 116.393 23.3527V38.64H111.649Z" fill="#0AC6E8"/>
<path d="M139.57 40.9594L144.183 41.6447C144.376 43.068 144.912 44.1047 145.791 44.7549C146.968 45.6335 148.576 46.0727 150.614 46.0727C152.811 46.0727 154.506 45.6335 155.701 44.7549C156.896 43.8763 157.704 42.6463 158.126 41.0648C158.372 40.0984 158.486 38.0689 158.469 34.9763C156.395 37.4187 153.812 38.64 150.72 38.64C146.871 38.64 143.893 37.2518 141.784 34.4755C139.676 31.6992 138.621 28.3694 138.621 24.486C138.621 21.8151 139.105 19.3551 140.071 17.106C141.038 14.8392 142.434 13.0908 144.262 11.8608C146.107 10.6308 148.268 10.0158 150.746 10.0158C154.049 10.0158 156.773 11.3513 158.917 14.0221V10.6484H163.292V34.8445C163.292 39.2022 162.844 42.2861 161.948 44.0959C161.069 45.9234 159.663 47.3643 157.731 48.4186C155.815 49.4729 153.452 50 150.64 50C147.302 50 144.605 49.2444 142.549 47.7333C140.493 46.2397 139.5 43.9817 139.57 40.9594ZM143.498 24.1434C143.498 27.8158 144.227 30.4955 145.685 32.1824C147.144 33.8693 148.971 34.7127 151.168 34.7127C153.346 34.7127 155.174 33.8781 156.65 32.2087C158.126 30.5219 158.864 27.8861 158.864 24.3015C158.864 20.8751 158.1 18.292 156.571 16.5525C155.06 14.8129 153.232 13.9431 151.089 13.9431C148.98 13.9431 147.188 14.8041 145.712 16.5261C144.236 18.2305 143.498 20.7696 143.498 24.1434Z" fill="#6DBFFF"/>
</svg>
