<svg width="739" height="160" viewBox="0 0 739 160" fill="none" xmlns="http://www.w3.org/2000/svg">
<path d="M131.25 16.8769C137.75 16.8769 143.875 18.1269 149.625 20.6269C155.375 23.0019 160.312 26.3144 164.437 30.5644C168.687 34.6894 172 39.6269 174.375 45.3769C176.875 51.1269 178.125 57.2519 178.125 63.7519V110.627H168.75V63.7519C168.75 58.6269 167.75 53.8144 165.75 49.3144C163.75 44.6894 161.062 40.6894 157.687 37.3144C154.312 33.9394 150.312 31.2519 145.687 29.2519C141.187 27.2519 136.375 26.2519 131.25 26.2519C126.125 26.2519 121.25 27.2519 116.625 29.2519C112.125 31.2519 108.187 33.9394 104.812 37.3144C101.437 40.6894 98.75 44.6894 96.75 49.3144C94.75 53.8144 93.75 58.6269 93.75 63.7519V110.627H84.375V63.7519C84.375 58.6269 83.375 53.8144 81.375 49.3144C79.375 44.6894 76.6875 40.6894 73.3125 37.3144C69.9375 33.9394 65.9375 31.2519 61.3125 29.2519C56.8125 27.2519 52 26.2519 46.875 26.2519C41.75 26.2519 36.875 27.2519 32.25 29.2519C27.75 31.2519 23.8125 33.9394 20.4375 37.3144C17.0625 40.6894 14.375 44.6894 12.375 49.3144C10.375 53.8144 9.375 58.6269 9.375 63.7519V110.627H0V63.7519C0 57.2519 1.25 51.1269 3.75 45.3769C6.25 39.6269 9.625 34.6894 13.875 30.5644C18.25 26.3144 23.25 23.0019 28.875 20.6269C34.5 18.1269 40.5 16.8769 46.875 16.8769C51.5 16.8769 55.9375 17.5644 60.1875 18.9394C64.5625 20.1894 68.5625 22.0019 72.1875 24.3769C75.8125 26.7519 79.0625 29.5644 81.9375 32.8144C84.8125 35.9394 87.1875 39.3769 89.0625 43.1269C90.9375 39.3769 93.3125 35.9394 96.1875 32.8144C99.1875 29.5644 102.5 26.7519 106.125 24.3769C109.875 22.0019 113.875 20.1894 118.125 18.9394C122.375 17.5644 126.75 16.8769 131.25 16.8769Z" fill="#C643D8"/>
<path d="M241.875 101.25C249.875 101.25 256.937 99.125 263.062 94.875C269.187 90.625 273.688 84.9375 276.563 77.8125H286.875C285.25 82.5625 282.937 86.9375 279.937 90.9375C277.062 94.9375 273.625 98.375 269.625 101.25C265.75 104.125 261.437 106.437 256.687 108.187C251.937 109.812 247 110.625 241.875 110.625C235.25 110.625 229.062 109.437 223.312 107.062C217.687 104.562 212.75 101.25 208.5 97.125C204.375 92.875 201.062 87.9375 198.562 82.3125C196.187 76.5625 195 70.375 195 63.75C195 57.25 196.187 51.125 198.562 45.375C201.062 39.625 204.375 34.6875 208.5 30.5625C212.75 26.3125 217.687 23 223.312 20.625C229.062 18.125 235.25 16.875 241.875 16.875C248.375 16.875 254.5 18.125 260.25 20.625C266 23 270.937 26.3125 275.062 30.5625C279.312 34.6875 282.625 39.625 285 45.375C287.5 51.125 288.75 57.25 288.75 63.75V68.4375H204.375C205.125 73.1875 206.562 77.5625 208.687 81.5625C210.937 85.5625 213.75 89 217.125 91.875C220.5 94.75 224.25 97.0625 228.375 98.8125C232.625 100.437 237.125 101.25 241.875 101.25ZM241.875 26.25C237.125 26.25 232.625 27.125 228.375 28.875C224.25 30.5 220.5 32.75 217.125 35.625C213.75 38.5 210.937 42 208.687 46.125C206.562 50.125 205.125 54.4375 204.375 59.0625H279.375C278.625 54.4375 277.125 50.125 274.875 46.125C272.75 42 270 38.5 266.625 35.625C263.25 32.75 259.437 30.5 255.187 28.875C250.937 27.125 246.5 26.25 241.875 26.25Z" fill="#EE6054"/>
<path d="M401.25 110.625C401.25 117 400 123 397.5 128.625C395.125 134.25 391.812 139.187 387.562 143.438C383.437 147.812 378.5 151.25 372.75 153.75C367 156.25 360.875 157.5 354.375 157.5C348 157.5 342 156.25 336.375 153.75C330.75 151.25 325.75 147.812 321.375 143.438C317.125 139.187 313.75 134.25 311.25 128.625C308.75 123 307.5 117 307.5 110.625H316.875C316.875 115.75 317.875 120.563 319.875 125.063C321.875 129.688 324.562 133.688 327.937 137.063C331.312 140.438 335.25 143.125 339.75 145.125C344.375 147.125 349.25 148.125 354.375 148.125C359.75 148.125 364.687 147.125 369.187 145.125C373.812 143.125 377.812 140.438 381.187 137.063C384.562 133.688 387.187 129.688 389.063 125.063C390.937 120.563 391.875 115.75 391.875 110.625V91.875C387.625 97.5 382.312 102.062 375.937 105.562C369.562 108.937 362.375 110.625 354.375 110.625C348 110.625 342 109.438 336.375 107.063C330.75 104.563 325.75 101.25 321.375 97.125C317.125 92.875 313.75 87.9375 311.25 82.3125C308.75 76.5625 307.5 70.375 307.5 63.75C307.5 57.25 308.75 51.125 311.25 45.375C313.75 39.625 317.125 34.6875 321.375 30.5625C325.75 26.3125 330.75 23 336.375 20.625C342 18.125 348 16.875 354.375 16.875C360.875 16.875 367 18.125 372.75 20.625C378.5 23 383.437 26.3125 387.562 30.5625C391.812 34.6875 395.125 39.625 397.5 45.375C400 51.125 401.25 57.25 401.25 63.75V110.625ZM354.375 101.25C359.75 101.25 364.687 100.25 369.187 98.25C373.812 96.25 377.812 93.5625 381.187 90.1875C384.562 86.8125 387.187 82.875 389.063 78.375C390.937 73.75 391.875 68.875 391.875 63.75C391.875 58.625 390.937 53.8125 389.063 49.3125C387.187 44.6875 384.562 40.6875 381.187 37.3125C377.812 33.9375 373.812 31.25 369.187 29.25C364.687 27.25 359.75 26.25 354.375 26.25C349.25 26.25 344.375 27.25 339.75 29.25C335.25 31.25 331.312 33.9375 327.937 37.3125C324.562 40.6875 321.875 44.6875 319.875 49.3125C317.875 53.8125 316.875 58.625 316.875 63.75C316.875 68.875 317.875 73.75 319.875 78.375C321.875 82.875 324.562 86.8125 327.937 90.1875C331.312 93.5625 335.25 96.25 339.75 98.25C344.375 100.25 349.25 101.25 354.375 101.25Z" fill="#34C6C3"/>
<path d="M420 63.75C420 57.25 421.187 51.125 423.562 45.375C426.062 39.625 429.375 34.6875 433.5 30.5625C437.75 26.3125 442.687 23 448.312 20.625C454.062 18.125 460.25 16.875 466.875 16.875C474.375 16.875 481.437 18.625 488.062 22.125C494.687 25.5 500.125 30 504.375 35.625V0H513.75V63.75C513.75 70.375 512.5 76.5625 510 82.3125C507.625 87.9375 504.312 92.875 500.062 97.125C495.937 101.25 491 104.563 485.25 107.063C479.5 109.438 473.375 110.625 466.875 110.625C460.25 110.625 454.062 109.438 448.312 107.063C442.687 104.563 437.75 101.25 433.5 97.125C429.375 92.875 426.062 87.9375 423.562 82.3125C421.187 76.5625 420 70.375 420 63.75ZM429.375 63.75C429.375 68.875 430.375 73.75 432.375 78.375C434.375 82.875 437.062 86.8125 440.437 90.1875C443.812 93.5625 447.75 96.25 452.25 98.25C456.875 100.25 461.75 101.25 466.875 101.25C472 101.25 476.812 100.25 481.312 98.25C485.937 96.25 489.937 93.5625 493.312 90.1875C496.687 86.8125 499.375 82.875 501.375 78.375C503.375 73.75 504.375 68.875 504.375 63.75C504.375 58.625 503.375 53.8125 501.375 49.3125C499.375 44.6875 496.687 40.6875 493.312 37.3125C489.937 33.9375 485.937 31.25 481.312 29.25C476.812 27.25 472 26.25 466.875 26.25C461.75 26.25 456.875 27.25 452.25 29.25C447.75 31.25 443.812 33.9375 440.437 37.3125C437.062 40.6875 434.375 44.6875 432.375 49.3125C430.375 53.8125 429.375 58.625 429.375 63.75Z" fill="#22A4EE"/>
<path d="M579.375 16.875C585.875 16.875 592 18.125 597.75 20.625C603.5 23 608.437 26.3125 612.562 30.5625C616.812 34.6875 620.125 39.625 622.5 45.375C625 51.125 626.25 57.25 626.25 63.75V110.625H616.875V91.875C612.625 97.5 607.187 102.062 600.562 105.562C593.937 108.937 586.875 110.625 579.375 110.625C572.75 110.625 566.562 109.437 560.812 107.062C555.187 104.562 550.25 101.25 546 97.125C541.875 92.875 538.562 87.9375 536.062 82.3125C533.687 76.5625 532.5 70.375 532.5 63.75C532.5 57.25 533.687 51.125 536.062 45.375C538.562 39.625 541.875 34.6875 546 30.5625C550.25 26.3125 555.187 23 560.812 20.625C566.562 18.125 572.75 16.875 579.375 16.875ZM579.375 101.25C584.5 101.25 589.312 100.25 593.812 98.25C598.437 96.25 602.437 93.5625 605.812 90.1875C609.187 86.8125 611.875 82.875 613.875 78.375C615.875 73.75 616.875 68.875 616.875 63.75C616.875 58.625 615.875 53.8125 613.875 49.3125C611.875 44.6875 609.187 40.6875 605.812 37.3125C602.437 33.9375 598.437 31.25 593.812 29.25C589.312 27.25 584.5 26.25 579.375 26.25C574.25 26.25 569.375 27.25 564.75 29.25C560.25 31.25 556.312 33.9375 552.937 37.3125C549.562 40.6875 546.875 44.6875 544.875 49.3125C542.875 53.8125 541.875 58.625 541.875 63.75C541.875 68.875 542.875 73.75 544.875 78.375C546.875 82.875 549.562 86.8125 552.937 90.1875C556.312 93.5625 560.25 96.25 564.75 98.25C569.375 100.25 574.25 101.25 579.375 101.25Z" fill="#78CF4D"/>
<path d="M738.75 63.75C738.75 70.375 737.5 76.5625 735 82.3125C732.5 87.9375 729.062 92.875 724.687 97.125C720.437 101.25 715.5 104.563 709.875 107.063C704.25 109.438 698.25 110.625 691.875 110.625C683.875 110.625 676.687 108.937 670.312 105.562C663.937 102.062 658.625 97.5 654.375 91.875V160H645V63.75C645 57.25 646.187 51.125 648.562 45.375C651.062 39.625 654.375 34.6875 658.5 30.5625C662.75 26.3125 667.687 23 673.312 20.625C679.062 18.125 685.25 16.875 691.875 16.875C698.25 16.875 704.25 18.125 709.875 20.625C715.5 23 720.437 26.3125 724.687 30.5625C729.062 34.6875 732.5 39.625 735 45.375C737.5 51.125 738.75 57.25 738.75 63.75ZM729.375 63.75C729.375 58.625 728.375 53.8125 726.375 49.3125C724.375 44.6875 721.687 40.6875 718.312 37.3125C714.937 33.9375 710.937 31.25 706.312 29.25C701.812 27.25 697 26.25 691.875 26.25C686.75 26.25 681.875 27.25 677.25 29.25C672.75 31.25 668.812 33.9375 665.437 37.3125C662.062 40.6875 659.375 44.6875 657.375 49.3125C655.375 53.8125 654.375 58.625 654.375 63.75C654.375 68.875 655.375 73.75 657.375 78.375C659.375 82.875 662.062 86.8125 665.437 90.1875C668.812 93.5625 672.75 96.25 677.25 98.25C681.875 100.25 686.75 101.25 691.875 101.25C697 101.25 701.812 100.25 706.312 98.25C710.937 96.25 714.937 93.5625 718.312 90.1875C721.687 86.8125 724.375 82.875 726.375 78.375C728.375 73.75 729.375 68.875 729.375 63.75Z" fill="#E8B922"/>
</svg>
